<svg width="52" height="43" viewBox="0 0 52 43" fill="none" xmlns="http://www.w3.org/2000/svg">
<path d="M11.9309 11.3496C9.62804 11.7729 5.83795 15.1706 5.83795 15.1706C5.83795 15.1706 10.7126 3.39029 22.4121 2.09116C22.4121 2.09116 19.5684 -3.84014 8.43768 4.77171C-2.69307 13.3836 -1.39394 27.6857 4.21258 29.1479C9.8191 30.6102 15.9944 24.6789 17.9445 18.9107C19.8947 13.1425 16.7424 10.4649 11.9309 11.3496ZM11.803 22.3922C9.47813 25.9192 6.40962 28.0046 4.95031 27.0435C3.491 26.0824 3.81724 21.6501 6.14215 18.1186C8.46705 14.5872 11.6385 12.6458 13.0992 13.6069C14.56 14.5681 14.1265 18.8608 11.803 22.3922Z" fill="white"/>
<path d="M58.3139 18.8681C57.704 20.4259 58.3815 13.654 56.0449 13.654C53.7082 13.654 52.3503 14.0831 48.9687 18.4963C47.2978 20.6758 51.614 11.4702 44.1984 11.2644C42.2042 11.2086 39.8793 11.9831 39.6573 12.0948C39.4354 12.2065 33.801 8.1577 26.6455 16.8577C26.6455 16.8577 27.4803 10.4018 22.4116 10.9793C22.4116 10.9793 23.9635 14.4608 19.9662 24.3909C15.9689 34.321 13.4662 39.7761 14.2656 41.4C15.0651 43.0239 16.7419 42.7227 17.3871 42.3905C18.0322 42.0584 24.3809 21.7074 28.8602 17.1605C32.6004 13.3616 34.8253 12.7267 35.9745 13.7275C35.9745 13.7275 24.3236 20.9285 27.0262 27.8915C27.9506 30.2737 32.0052 30.0533 35.1266 27.1743C38.248 24.2954 42.4496 18.5169 40.5891 13.3601C40.5891 13.3601 46.2911 11.9258 44.7304 17.5073C43.1697 23.0888 40.6494 26.7496 42.2703 28.6762C43.8913 30.6029 45.6915 28.5293 46.6512 26.5042C47.6108 24.4791 52.5296 14.2727 54.033 15.6541C55.5364 17.0356 51.0321 25.3167 53.6127 26.6967C56.1933 28.0767 61.9409 15.9774 63.0607 14.4006C63.9689 13.1235 65.7839 12.3784 64.9565 15.8937C64.7213 16.8945 60.5903 27.5594 62.0173 29.7608C63.4443 31.9623 66.7582 31.758 66.7582 31.758C66.7582 31.758 64.6302 27.7357 68.2161 17.9438C71.7563 8.37227 62.3876 8.4575 58.3139 18.8681ZM29.207 26.9891C26.0709 24.4908 33.6511 17.0194 36.0098 15.6291C36.317 15.4469 36.6139 15.6438 36.6432 15.9995C36.8754 18.8931 31.2748 28.6322 29.207 26.9891Z" fill="white"/>
</svg>
